<svg xmlns="http://www.w3.org/2000/svg" height="20" viewBox="0 -960 960 960" width="20"><path fill="#fff" d="M482.961-183q-123.711 0-210.336-86.625Q186-356.25 186-480q0-108.417 68.222-189.708Q322.444-751 424.761-772q-5.943 0-9.352-.5Q412-773 415-773q-3 29-4 55.5t-1 46.5q0 109.667 78.167 186.833Q566.333-407 677-407q19.891 0 41.946.5Q741-406 774-414V-421.761q-20 102.317-101.331 170.539T482.961-183Zm.039-46q67 0 127.276-36.074Q670.553-301.147 705-363q-6 0-13.667 1-7.666 1-13.333 1-130.48 0-222.24-90.591Q364-542.182 364-671q0-10.667 1-18.333Q366-697 367-702q-62.853 34.447-98.926 94.224Q232-548 232-480q0 104.614 73.193 177.807Q378.386-229 483-229Zm-20-231Z"/></svg>