<svg xmlns="http://www.w3.org/2000/svg" height="20" viewBox="0 -960 960 960" width="20"><path d="M480-373q44.583 0 75.792-31.208Q587-435.417 587-480t-31.208-75.792Q524.583-587 480-587t-75.792 31.208Q373-524.583 373-480t31.208 75.792Q435.417-373 480-373Zm-.226 46Q415-327 371-371.226t-44-109Q327-545 371.226-589t109-44Q545-633 589-588.774t44 109Q633-415 588.774-371t-109 44ZM229-457H61v-46h168v46Zm670 0H731v-46h168v46ZM457-731v-168h46v168h-46Zm0 670v-168h46v168h-46ZM288-641 185-744l30-34 106 103-33 34Zm457 454-102-96 30-36 102 103-30 29ZM639-672l105-101 30 28-99 107-36-34ZM183-216l100-99 32 28-99 104-33-33Zm297-264Z"/></svg>