<?xml version="1.0" standalone="no"?>
<!DOCTYPE svg PUBLIC "-//W3C//DTD SVG 20010904//EN"
 "http://www.w3.org/TR/2001/REC-SVG-20010904/DTD/svg10.dtd">
<svg version="1.0" xmlns="http://www.w3.org/2000/svg"
 width="700.000000pt" height="700.000000pt" viewBox="0 0 700.000000 700.000000"
 preserveAspectRatio="xMidYMid meet">
<metadata>
Created by potrace 1.14, written by Peter Selinger 2001-2017
</metadata>
<g transform="translate(0.000000,700.000000) scale(0.100000,-0.100000)"
fill="#000000" stroke="none">
<path d="M4375 6776 c-44 -6 -85 -15 -92 -19 -6 -4 -19 -27 -28 -51 l-17 -44
-82 -11 c-44 -6 -169 -15 -276 -21 -204 -10 -291 -3 -400 34 -25 8 -70 19
-100 24 -46 8 -58 7 -80 -9 -14 -10 -60 -26 -103 -35 -70 -14 -90 -14 -185 -2
-112 15 -272 8 -319 -14 -21 -10 -54 -74 -67 -129 -8 -37 20 -58 90 -69 60 -8
94 -18 94 -27 0 -3 -10 -18 -21 -35 -19 -27 -26 -29 -63 -25 -22 3 -69 15
-104 28 l-63 22 -22 -20 c-12 -11 -48 -35 -80 -52 -32 -18 -64 -45 -72 -61
-14 -27 -45 -48 -45 -30 0 5 -16 14 -35 21 -38 14 -41 20 -24 50 28 53 -21
119 -107 145 -33 10 -73 28 -91 41 -17 13 -38 23 -46 23 -8 0 -38 16 -67 36
-42 29 -63 36 -119 41 l-68 6 -38 -62 c-21 -33 -43 -61 -50 -61 -7 0 -39 -13
-71 -30 -34 -17 -75 -30 -96 -30 -41 0 -43 -3 -83 -120 -22 -65 -41 -90 -67
-90 -10 0 -30 -18 -46 -40 -15 -21 -31 -39 -35 -40 -5 0 -23 -10 -40 -22 -17
-13 -52 -25 -77 -28 -37 -4 -46 -9 -48 -27 -2 -13 -8 -23 -13 -23 -17 0 -3
-139 20 -203 15 -45 18 -65 10 -84 -5 -15 -8 -32 -5 -39 3 -7 37 -22 77 -35
70 -22 72 -24 95 -73 38 -84 39 -99 9 -134 -26 -31 -30 -32 -99 -32 -90 0
-100 9 -121 109 -8 40 -15 74 -15 76 0 13 -51 28 -96 30 -42 1 -58 7 -92 36
-23 19 -44 45 -47 59 -3 14 -14 36 -25 50 l-19 25 -43 -21 c-24 -12 -77 -38
-119 -58 -81 -39 -101 -63 -114 -131 -10 -60 -29 -88 -80 -120 -52 -33 -101
-89 -169 -192 l-48 -71 4 -169 3 -168 42 -53 c24 -30 43 -60 43 -67 0 -8 7
-20 15 -29 30 -30 35 -63 25 -171 -11 -114 -8 -131 34 -159 14 -9 35 -34 46
-55 11 -22 30 -43 42 -46 35 -11 59 -36 80 -85 31 -73 90 -121 183 -150 62
-20 90 -34 125 -68 25 -24 61 -52 81 -62 19 -10 41 -26 49 -35 10 -12 29 -15
90 -14 42 2 81 0 87 -4 6 -4 56 -15 111 -26 118 -23 182 -49 214 -86 13 -15
50 -40 83 -55 68 -31 127 -90 157 -157 12 -28 32 -52 53 -64 26 -15 45 -45 89
-133 31 -63 56 -125 56 -139 0 -36 37 -127 64 -157 52 -59 71 -137 59 -240
l-8 -65 -57 -33 c-50 -30 -61 -43 -103 -123 -26 -49 -51 -89 -55 -89 -18 0
-70 -66 -70 -89 0 -14 -10 -80 -21 -146 -11 -66 -26 -160 -33 -208 -8 -56 -20
-98 -33 -115 -11 -15 -26 -45 -33 -67 -16 -52 -56 -122 -76 -133 -10 -6 -19
-34 -25 -85 -14 -114 -74 -265 -111 -282 -14 -6 -32 -35 -50 -79 -34 -84 -97
-170 -141 -192 -39 -20 -43 -27 -51 -74 -3 -20 -18 -50 -33 -66 -15 -16 -35
-46 -45 -67 -19 -41 -61 -85 -95 -98 -30 -11 -41 -70 -19 -103 8 -14 29 -33
46 -43 17 -10 33 -28 37 -41 3 -14 23 -32 54 -47 26 -14 53 -34 59 -46 7 -11
27 -27 45 -35 18 -7 64 -37 102 -65 57 -44 79 -54 138 -65 39 -6 104 -23 146
-37 88 -28 100 -25 129 34 12 22 30 49 41 60 12 12 32 46 46 77 13 32 35 68
49 82 15 16 31 55 43 105 14 54 27 85 42 96 12 9 29 36 38 60 21 55 129 142
202 160 30 8 51 19 54 30 9 27 122 121 179 149 40 19 56 35 74 70 12 24 34 51
50 58 15 8 41 26 57 41 17 15 46 39 66 53 21 16 40 40 45 60 7 23 21 39 45 52
38 21 113 122 124 168 9 34 41 63 87 77 29 10 50 30 98 96 54 74 67 86 110
100 35 12 57 28 82 60 38 49 107 109 150 131 15 8 42 39 58 68 32 57 39 60
125 71 40 5 64 1 119 -20 38 -14 81 -32 97 -40 15 -8 63 -20 106 -26 47 -6
111 -25 161 -46 45 -19 129 -46 185 -58 56 -13 124 -33 151 -44 26 -12 83 -28
124 -37 102 -21 129 -36 137 -76 4 -18 19 -49 34 -68 15 -19 33 -46 41 -59 7
-13 28 -40 47 -59 32 -31 93 -142 93 -167 0 -6 22 -18 49 -28 27 -9 61 -31 74
-47 23 -26 34 -30 114 -39 48 -6 135 -17 193 -26 159 -23 348 -34 409 -24 38
6 71 20 111 48 54 38 164 78 266 97 23 4 55 21 77 40 20 19 41 34 46 34 4 0
27 26 49 59 23 32 52 65 66 74 13 9 30 33 36 54 16 48 58 133 76 154 8 8 17
44 20 80 4 35 13 81 21 103 22 63 17 194 -12 296 -34 122 -34 221 0 286 14 26
25 56 25 68 0 32 27 114 50 151 11 18 20 40 20 49 0 10 10 39 21 66 18 43 29
53 75 75 46 22 58 34 90 91 33 60 37 73 35 133 -1 36 -8 94 -16 128 -18 78
-21 183 -6 210 18 34 14 179 -5 209 -9 14 -23 64 -31 112 -7 48 -17 113 -22
144 -5 31 -19 70 -31 86 -23 31 -39 88 -40 139 0 25 -6 36 -27 47 -32 17 -72
64 -101 121 -21 41 -42 65 -100 113 -32 26 -34 32 -41 109 -6 70 -11 87 -33
110 -15 15 -30 41 -34 56 -3 16 -24 49 -45 73 -37 43 -59 95 -59 142 0 13 -9
54 -20 90 -10 37 -24 85 -29 107 -8 31 -22 49 -59 77 -35 26 -61 58 -91 112
-35 65 -49 80 -89 100 -27 14 -54 31 -60 39 -27 33 -52 131 -52 207 0 55 -4
81 -14 90 -14 11 -22 41 -43 160 -8 43 -9 44 -71 66 -34 12 -71 29 -81 39 -20
17 -71 113 -71 133 0 13 -56 46 -93 56 -15 3 -61 22 -102 41 -41 19 -77 35
-80 35 -3 0 -24 13 -46 30 -67 48 -143 72 -239 75 -128 4 -140 8 -175 65 -16
28 -36 52 -45 55 -18 6 -299 35 -320 34 -8 -1 -51 -7 -95 -13z m-898 -372 c10
-28 -25 -44 -94 -44 -57 0 -65 2 -72 23 -12 31 2 37 87 37 58 0 74 -3 79 -16z
m199 -142 c-12 -11 -18 7 -10 30 l8 23 4 -23 c2 -13 1 -26 -2 -30z m-505
-1412 c-2 -8 -9 -43 -15 -77 -6 -34 -16 -67 -21 -72 -14 -14 -124 15 -149 39
-18 18 -39 106 -29 123 2 4 53 6 111 5 89 -3 106 -5 103 -18z m53 -201 c-8
-14 -44 -10 -44 5 0 9 8 12 25 8 14 -2 22 -8 19 -13z m-311 -420 c-4 -4 -18
-6 -30 -3 l-22 6 22 18 c19 16 23 16 31 3 4 -8 4 -19 -1 -24z m2455 -111 c48
-23 47 -33 -6 -48 -87 -24 -127 -3 -96 50 20 33 27 33 102 -2z m-2015 -1435
c23 -46 39 -130 32 -165 -9 -40 -42 -108 -54 -108 -4 0 -20 -23 -36 -51 -15
-28 -48 -73 -74 -99 -25 -26 -75 -79 -111 -118 -52 -57 -74 -73 -110 -83 -25
-6 -57 -20 -72 -30 -27 -19 -27 -19 -47 2 -11 12 -27 41 -35 65 l-14 43 37 43
c23 26 41 58 45 82 6 30 23 56 71 105 34 36 70 80 79 98 9 17 24 34 35 38 23
7 41 34 65 98 18 48 30 59 101 89 56 24 72 22 88 -9z m-998 -177 c7 -11 21
-50 30 -86 28 -105 17 -207 -39 -373 -25 -76 -46 -146 -46 -155 -1 -29 -37
-98 -73 -138 -19 -22 -37 -55 -41 -75 -4 -21 -15 -48 -26 -61 -10 -14 -36 -69
-56 -124 -20 -54 -47 -110 -59 -124 -60 -65 -75 -130 -60 -262 7 -56 4 -82
-15 -148 -21 -75 -26 -83 -61 -101 -21 -10 -43 -28 -48 -38 -10 -18 -34 -26
-114 -38 -42 -6 -67 9 -60 35 2 9 -5 27 -16 39 -13 14 -21 36 -21 58 0 22 -6
38 -15 41 -8 4 -15 12 -15 20 0 7 -9 19 -20 27 -17 12 -19 18 -9 45 8 22 7 36
-1 52 -6 12 -17 44 -25 72 -11 44 -10 57 7 116 11 37 28 83 36 102 9 19 21 58
27 85 8 43 15 53 45 67 38 19 58 62 59 131 1 29 10 47 40 80 22 24 56 76 77
117 20 41 46 85 57 97 11 13 32 61 47 107 18 56 40 99 62 126 19 22 48 71 64
108 15 37 42 90 58 117 16 28 35 59 41 69 26 43 145 52 170 12z"/>
<path d="M2320 6500 c-12 -16 -18 -34 -15 -40 8 -14 54 -12 90 4 l30 12 -27
27 c-35 35 -52 34 -78 -3z"/>
</g>
</svg>
